# xmcd
#
# Track frame offsets: 
#        162
#        17750
#        33180
#        45207
#        65065
#        85082
#        99327
#        111550
#        123760
#        141045
#        164795
#        178580
#
# Disc length: 2604 seconds
#
# Revision: 0
# Processed by: cddbd v1.5PL3 Copyright (c) Steve Scherf et al.
# Submitted via: ExactAudioCopy v0.95a5
#
DISCID=990a2a0c
DTITLE=Neil Diamond - Diamonds 24 Welterfolge
DYEAR=1900
DGENRE=Folk/Rock
TTITLE0=Longfellow Serenade
TTITLE1=Forever in Blue Jeans
TTITLE2=Red red Wine
TTITLE3=Primitive
TTITLE4=Heartlight
TTITLE5=You don´t bring me flowers
TTITLE6=Cherry Cherry
TTITLE7=Stargazer
TTITLE8=Shilo
TTITLE9=Dear Father
TTITLE10=Thank the Lord for the Nighttime
TTITLE11=September morn
EXTD=
EXTT0=
EXTT1=
EXTT2=
EXTT3=
EXTT4=
EXTT5=
EXTT6=
EXTT7=
EXTT8=
EXTT9=
EXTT10=
EXTT11=
PLAYORDER=
